<svg id="59725d3d-bdd8-4af0-9b66-49b8d09410bc" data-name="Layer 1" xmlns="http://www.w3.org/2000/svg" xmlns:xlink="http://www.w3.org/1999/xlink" width="1041.32" height="554.17" viewBox="0 0 1041.32 554.17"><defs><linearGradient id="dff037aa-d578-4bab-81e7-399360663117" x1="597.75" y1="725.44" x2="597.75" y2="347.69" gradientUnits="userSpaceOnUse"><stop offset="0" stop-color="gray" stop-opacity="0.25"/><stop offset="0.54" stop-color="gray" stop-opacity="0.12"/><stop offset="1" stop-color="gray" stop-opacity="0.1"/></linearGradient></defs><title>programming</title><path d="M1040.82,611.12q-1.74,3.75-3.47,7.4-2.7,5.67-5.33,11.12c-.78,1.61-1.56,3.19-2.32,4.77-8.6,17.57-16.63,33.11-23.45,45.89A73.21,73.21,0,0,1,942.44,719l-151.65,1.65h-1.6l-13,.14-11.12.12-34.1.37-1.38,0-17.36.19h-.53l-107,1.16-95.51,1-11.11.12-69,.75H429l-44.75.48h-.48l-141.5,1.53-42.33.46a88.07,88.07,0,0,1-26.67-3.82,86.39,86.39,0,0,1-39.09-24.75C116,678.37,102.75,655,93.85,629.64q-1.93-5.49-3.6-11.12C59.44,514.37,97,380,164.6,290.08q4.25-5.64,8.64-11l.07-.08c20.79-25.52,44.1-46.84,68.93-62,44-26.91,92.75-34.49,140.7-11.9,40.57,19.12,78.45,28.11,115.17,30.55,3.71.24,7.42.42,11.11.53,84.23,2.65,163.17-27.7,255.87-47.29,3.69-.78,7.39-1.55,11.12-2.28,66.13-13.16,139.49-20.1,226.73-5.51a189.09,189.09,0,0,1,26.76,6.4q5.77,1.86,11.12,4c41.64,16.94,64.35,48.24,74,87.46q1.37,5.46,2.37,11.11C1134.3,384.41,1084.19,518.23,1040.82,611.12Z" transform="translate(-79.34 -172.91)" fill="#6c63ff" opacity="0.1"/><g opacity="0.1"><path d="M242.24,217V726.62l-42.33.46a88.07,88.07,0,0,1-26.67-3.82V279h.07C194.1,253.45,217.41,232.13,242.24,217Z" transform="translate(-79.34 -172.91)" fill="#6c63ff"/><path d="M1117.24,290.08H164.6q4.25-5.64,8.64-11V279h941.63Q1116.24,284.43,1117.24,290.08Z" transform="translate(-79.34 -172.91)" fill="#6c63ff"/><path d="M1040.82,191.51v427h-3.47q-2.7,5.67-5.33,11.12c-.78,1.61-1.56,3.19-2.32,4.77V187.47Q1035.47,189.33,1040.82,191.51Z" transform="translate(-79.34 -172.91)" fill="#6c63ff"/><path d="M776.21,186.58V720.83l-11.12.12V188.86C768.78,188.08,772.48,187.31,776.21,186.58Z" transform="translate(-79.34 -172.91)" fill="#6c63ff"/><path d="M509.22,236.15V723.73l-11.11.12V235.62C501.82,235.86,505.53,236,509.22,236.15Z" transform="translate(-79.34 -172.91)" fill="#6c63ff"/><path d="M1037.35,618.52q-2.7,5.67-5.33,11.12H93.85q-1.93-5.49-3.6-11.12Z" transform="translate(-79.34 -172.91)" fill="#6c63ff"/></g><rect x="211.6" y="265.83" width="19" height="57.66" fill="#3f3d56"/><rect x="722.93" y="262.83" width="19" height="61" fill="#3f3d56"/><polygon points="863.1 533.65 863.1 546.65 711.18 548.05 709.56 548.08 651.82 548.61 650.44 548.63 632.89 548.78 632.37 548.78 525.39 549.77 349.78 551.4 349.63 551.4 304.98 551.82 304.5 551.83 106.1 553.65 106.1 538.65 152.75 510.65 246.35 509.87 248.35 509.86 249.01 509.85 251.01 509.82 295.95 509.45 297.96 509.44 298.6 509.43 300.6 509.42 315.01 509.3 315.39 509.29 350.94 508.99 351.23 508.99 628.63 506.65 635.42 506.6 636.1 506.6 641.28 506.55 678.93 506.24 680.93 506.21 682.78 506.19 683.74 506.19 695.45 506.1 697.77 506.07 700.88 506.05 710.63 505.96 726.1 505.83 728.1 505.81 731.58 505.79 732.23 505.79 806.94 505.15 863.1 533.65" fill="#65617d"/><polygon points="863.1 533.65 863.1 546.65 711.18 548.05 709.56 548.08 651.82 548.61 650.44 548.63 632.89 548.78 632.37 548.78 525.39 549.77 349.78 551.4 349.63 551.4 304.98 551.82 304.5 551.83 106.1 553.65 106.1 538.65 152.75 510.65 246.35 509.87 248.35 509.86 249.01 509.85 251.01 509.82 295.95 509.45 297.96 509.44 298.6 509.43 300.6 509.42 315.01 509.3 315.39 509.29 350.94 508.99 351.23 508.99 628.63 506.65 635.42 506.6 636.1 506.6 641.28 506.55 678.93 506.24 680.93 506.21 682.78 506.19 683.74 506.19 695.45 506.1 697.77 506.07 700.88 506.05 710.63 505.96 726.1 505.83 728.1 505.81 731.58 505.79 732.23 505.79 806.94 505.15 863.1 533.65" opacity="0.2"/><path d="M375.44,656.57v24.49a6.13,6.13,0,0,1-3.5,5.54,6,6,0,0,1-2.5.6l-34.9.74a6,6,0,0,1-2.7-.57,6.12,6.12,0,0,1-3.57-5.57V656.57Z" transform="translate(-79.34 -172.91)" fill="#3f3d56"/><path d="M375.44,656.57v24.49a6.13,6.13,0,0,1-3.5,5.54,6,6,0,0,1-2.5.6l-34.9.74a6,6,0,0,1-2.7-.57,6.12,6.12,0,0,1-3.57-5.57V656.57Z" transform="translate(-79.34 -172.91)" opacity="0.1"/><path d="M377.44,656.57v24.49a6.13,6.13,0,0,1-3.5,5.54,6,6,0,0,1-2.5.6l-34.9.74a6,6,0,0,1-2.7-.57,6.12,6.12,0,0,1-3.57-5.57V656.57Z" transform="translate(-79.34 -172.91)" fill="#3f3d56"/><rect x="680.93" y="483.66" width="47.17" height="31.5" fill="#3f3d56"/><rect x="680.93" y="483.66" width="47.17" height="31.5" opacity="0.1"/><rect x="678.93" y="483.66" width="47.17" height="31.5" fill="#3f3d56"/><polygon points="230.6 265.82 230.6 271.55 211.6 271.06 211.6 265.82 230.6 265.82" opacity="0.1"/><path d="M435,277.31l-22.83,164a4.3,4.3,0,0,1-4.37,3.71L225,440.28l-3.47-.09a4.3,4.3,0,0,1-4.16-4.87L243,263.64a4.3,4.3,0,0,1,4.54-3.63L431,272.43A4.29,4.29,0,0,1,435,277.31Z" transform="translate(-79.34 -172.91)" fill="#65617d"/><polygon points="175.93 99.16 156.6 250.49 324.6 255.82 345.26 109.82 175.93 99.16" fill="#6c63ff"/><rect x="384.6" y="96.82" width="204.67" height="173.33" rx="5.33" ry="5.33" fill="#65617d"/><rect x="394.26" y="108.49" width="186" height="144.33" fill="#6c63ff"/><polygon points="741.93 262.82 741.93 266.61 722.93 267 722.93 262.82 741.93 262.82" opacity="0.1"/><path d="M907,432.53a3.08,3.08,0,0,1-3,3.28L716.8,439.68a3.08,3.08,0,0,1-3.13-2.79L697.58,269.61a3.08,3.08,0,0,1,2.92-3.37L886.28,257l2-.1a3.07,3.07,0,0,1,3.22,2.8Z" transform="translate(-79.34 -172.91)" fill="#65617d"/><polygon points="628.93 103.16 798.6 94.82 812.93 246.82 644.6 250.82 628.93 103.16" fill="#6c63ff"/><path d="M907,432.53a3.08,3.08,0,0,1-3,3.28L886.28,257l2-.1a3.07,3.07,0,0,1,3.22,2.8Z" transform="translate(-79.34 -172.91)" opacity="0.1"/><path d="M247.57,260,225,440.28l-3.47-.09a4.3,4.3,0,0,1-4.16-4.87L243,263.64A4.3,4.3,0,0,1,247.57,260Z" transform="translate(-79.34 -172.91)" opacity="0.1"/><rect x="211.6" y="306.41" width="19" height="17.08" opacity="0.1"/><polygon points="298.1 483.65 298.1 488.62 250.93 489.88 250.93 483.65 298.1 483.65" opacity="0.1"/><path d="M460.69,485.27v168.2a4,4,0,0,1-3.85,3.95l-191.65,5.1h-.05a4,4,0,0,1-3.95-3.95V485.27a4,4,0,0,1,3.95-3.95h191.6A4,4,0,0,1,460.69,485.27Z" transform="translate(-79.34 -172.91)" fill="#65617d"/><path d="M265.19,481.32v181.2h-.05a4,4,0,0,1-3.95-3.95V485.27a4,4,0,0,1,3.95-3.95Z" transform="translate(-79.34 -172.91)" opacity="0.1"/><polygon points="194.6 319.15 372.1 319.15 372.1 467.4 194.6 471.4 194.6 319.15" fill="#d4dfec"/><rect x="722.93" y="306.41" width="19" height="17.42" opacity="0.1"/><polygon points="726.1 483.65 726.1 490.06 678.93 488.8 678.93 483.65 726.1 483.65" opacity="0.1"/><path d="M867.69,485.27v173.3a4,4,0,0,1-4,3.95h0L672,657.42a4,4,0,0,1-3.85-3.95V485.27a4,4,0,0,1,3.95-3.95h191.6A4,4,0,0,1,867.69,485.27Z" transform="translate(-79.34 -172.91)" fill="#65617d"/><path d="M867.69,485.27v173.3a4,4,0,0,1-4,3.95h0V481.32h0A4,4,0,0,1,867.69,485.27Z" transform="translate(-79.34 -172.91)" opacity="0.1"/><polygon points="775.6 319.15 598.1 319.15 598.1 467.4 775.6 471.4 775.6 319.15" fill="#d4dfec"/><path d="M663.19,485.27v168.2a4,4,0,0,1-3.85,3.95l-191.65,5.1h0a4,4,0,0,1-4-3.95V485.27a4,4,0,0,1,3.95-3.95h191.6A4,4,0,0,1,663.19,485.27Z" transform="translate(-79.34 -172.91)" fill="#65617d"/><polygon points="397.1 319.15 574.6 319.15 574.6 467.4 397.1 471.4 397.1 319.15" fill="#d4dfec"/><polygon points="863.1 533.65 863.1 546.65 711.18 548.05 709.56 548.08 651.82 548.61 650.44 548.63 632.89 548.78 632.37 548.78 525.39 549.77 349.78 551.4 349.63 551.4 304.98 551.82 304.5 551.83 106.1 553.65 106.1 538.65 308.61 537.32 309.09 537.32 350.08 537.04 350.27 537.04 633.35 535.17 633.64 535.17 633.81 535.16 634.28 535.16 639.07 535.13 640.53 535.13 715.02 534.63 719.42 534.61 720.4 534.6 863.1 533.65" opacity="0.1"/><circle cx="487.26" cy="272.16" r="51.33" fill="#fbbebe"/><path d="M383.74,725.09c0-.11.06-.23.1-.35,1-3.59,2.78-9.66,4.11-14.51.17-.6.33-1.19.48-1.75,1.47-5.47,4.33-18.28,5.92-26.27.56-2.81,1-5,1.09-6.1.2-1.69,3.21-8.92,6.62-17.23,2.39-5.84,5-12.22,6.91-17.6a61.38,61.38,0,0,0,2.93-9.85,5.1,5.1,0,0,0,0-2.13,14.69,14.69,0,0,1-.48-3.5v0c-.23-6.2,1.62-16,4.48-20.11,3.5-5,6-23.66,6-23.66s5.18.75,6-3.53a6.15,6.15,0,0,0,.1-1.4,7.41,7.41,0,0,0-.09-1.11c-.89-6.24,14.72-12.88,23.5-14.31a19.67,19.67,0,0,1,3-.28,27.24,27.24,0,0,0,6.25-1.44q1.4-.43,3-1c3.68-1.24,8.08-2.88,12.75-4.68,17.56-6.81,38.82-16,38.82-16,.15-.71.32-1.39.51-2.06a27.71,27.71,0,0,1,16.35-18.93h0c0-.66,0-1.33,0-2,0-3.45-.15-7-.3-10.54,0-.69-.06-1.38-.1-2.07,0-.2,0-.41,0-.61s0-.35,0-.52c0-.7-.07-1.4-.11-2.09l-.18-.14a16.41,16.41,0,0,1-3.9-4.2,15.27,15.27,0,0,1-1.42-3c-1.25-3.39-1.54-7.17-2.38-10.75l-.18-.74a84,84,0,0,0-4-10.58c-2.21-5.42-3.91-11-5.6-16.65q-1.54-5.13-3.11-10.28l-1.58-5.24c-.3-1-.6-2-.83-3v0a13.27,13.27,0,0,1-.26-1.4,0,0,0,0,1,0,0,10,10,0,0,1,.24-4.61,32.09,32.09,0,0,1,1.32-3,7.87,7.87,0,0,0,.5-1.38v0a3,3,0,0,0,.08-.32,5.65,5.65,0,0,0,.11-1.08,18.46,18.46,0,0,0-.52-3.89.07.07,0,0,1,0-.05,2.56,2.56,0,0,0-.05-.27,25.48,25.48,0,0,1-.36-3,28.45,28.45,0,0,1,3.47-15.57l.19-.36a25.22,25.22,0,0,1,1.84-2.78h0c.31-.42.63-.82,1-1.22-1.4,1.34-3.7.75-5-.69a3.61,3.61,0,0,1-.55-.75,3.81,3.81,0,0,1-.23-.45c-.05-.12-.09-.25-.13-.38-.7-2.45.52-5.06,2.12-7.05a18.49,18.49,0,0,1,5.74-4.7h0a3.84,3.84,0,0,1,.4-.21,17.12,17.12,0,0,1,2.64-1.06h0a15.06,15.06,0,0,1,1.63-.44l-3.71-.34-1.5-.14a14.49,14.49,0,0,1,13-10.91h1.08a11.73,11.73,0,0,1,1.57.13,4.44,4.44,0,0,1-2.65-4.33,14.41,14.41,0,0,0,9.19,3.06h.38a30,30,0,0,1-.34-3.27h0a0,0,0,0,1,0,0,0,0,0,0,1,0,0,33.19,33.19,0,0,1,0-4.46,8.44,8.44,0,0,0,6.78,2.26l-2.08-2.9a9.49,9.49,0,0,0,6.56,2.05l.48-.05a7,7,0,0,0,1.19-.23l.09,0c-.19-.24-.36-.49-.53-.75l-.06-.12a9.67,9.67,0,0,1-1-2.09,6.59,6.59,0,0,1-.24-.87h0a8.75,8.75,0,0,1,.45-5.45c3.23,2.7,6.77,6.39,11,3.6s4.37-7.91,11-7.39a10.2,10.2,0,0,1,8.41,6.12,6.75,6.75,0,0,1,7.67-1.75,6.85,6.85,0,0,1,3.88,6.89c2.75-.69,5.71-1.37,8.35-.33s4.34,4.41,2.84,6.66a1.43,1.43,0,0,1-.14.2c-1.23,1.59-3.95,2.46-3.66,4.46l.42.3,1.3.94a.05.05,0,0,1,0,0q7.65,5.52,14.9,11.6c2.48,2.08,5.12,4.58,5.29,7.83a8.64,8.64,0,0,1-.24,2.37h0c-.16.78-.38,1.56-.55,2.34a19.51,19.51,0,0,0-.34,6.05h0c.07.59.16,1.17.27,1.76,1.53,7.73,7.71,14.11,8.32,22l0,.56a17.78,17.78,0,0,1-.07,2.53c-.46,4.8-2.68,9.41-4.48,14-.11.28-.22.56-.32.84-3.47,9-5.47,18.59-7,28.16a100.26,100.26,0,0,1-2,10.09A26.73,26.73,0,0,1,611,492.07a16.22,16.22,0,0,1-3.36,3,18.67,18.67,0,0,1-2.65,1.41s0,0,0,.06c.11.61.2,1.22.31,1.83.06.32.11.64.17,1h0a.14.14,0,0,0,0,.06c.84,4.73,1.8,9.36,2.81,13.76l.51,2.19c12.6,4.55,14.09,13.87,14.18,17.44a9.64,9.64,0,0,1,0,1.43s19,.5,26.5,6a20.34,20.34,0,0,0,4.51,2.3,83,83,0,0,0,9.25,2.89c1.61.42,3.29.83,5,1.23,3,.69,6.18,1.36,9.25,2,8.19,1.65,15.9,3,19.81,4,9.33,2.36,30.67,22.82,30.67,22.82s2.5,20.64,5,23.65,7,13.59,7,13.59l16.54,29.41,7,12.37h4.5c.62,0,1.84.88,3.21,2.1,1.19,1.06,2.51,2.38,3.67,3.58l1.92,2.05,1.2,1.33s7.27.18,9.24,5.93c5.92-.17,13.19.22,18.28,2.5a14.14,14.14,0,0,1,2,1.08,8.68,8.68,0,0,1,4.13,5.66,8.34,8.34,0,0,1,.18,1.44c0,.57,0,1.14,0,1.7-.36,7.57-5.29,13.87-9.82,18.11l.32.57s-.15.36-.44,1c-.08.19-.18.4-.29.64h0c-.59,1.26-1.53,3.15-2.76,5.36a63.31,63.31,0,0,1-9.57,13.17l-.29.3-57.74.53-.17-.2L719.87,708l-5.57-6.64-.17-.21-.16,1.59-.54,5.3-1.3,12.81-.07.64,0,.17-.15,1.48.11-1.48h-.29l-107,1L429.11,724.6l0,.84h-.14l0-.84-44.75.48Z" transform="translate(-79.34 -172.91)" fill="url(#dff037aa-d578-4bab-81e7-399360663117)"/><path d="M617.94,550.07s-99.5,12-90,0c3.44-4.34,4.39-17.2,4.2-31.85-.06-4.45-.22-9.06-.45-13.65-1.1-22-3.75-43.5-3.75-43.5s87-41,77-8.5c-4,13.13-2.69,31.57.35,48.88.89,5.05,1.92,10,3,14.7A344.67,344.67,0,0,0,617.94,550.07Z" transform="translate(-79.34 -172.91)" fill="#fbbebe"/><path d="M617.94,550.07s-99.5,12-90,0c3.44-4.34,4.39-17.2,4.2-31.85,15.17-6.48,34.47-1.65,34.47-1.65,20.32-4.05,33.35-3.26,41.68-.42A344.67,344.67,0,0,0,617.94,550.07Z" transform="translate(-79.34 -172.91)" opacity="0.1"/><path d="M429.08,725.44l0-.84,175.62-1.91,107-1H712l-.11,1.48.15-1.48h.19l0-.17,1.37-13.45.52-5.09.16-1.59.14-1.33,6.18-20.61,6.18-20.58,5.2-17.33,7.94-26.48s-4.5-10.5-7-13.5-5-23.5-5-23.5-21.34-20.33-30.67-22.67c-3.91-1-11.63-2.33-19.83-4-3.07-.62-6.22-1.28-9.25-2-1.71-.39-3.39-.8-5-1.21a87.91,87.91,0,0,1-9.25-2.86,20.7,20.7,0,0,1-4.5-2.29c-7.35-5.39-25.77-6-26.48-6h0a.42.42,0,0,1,0-.07v-.09a10.26,10.26,0,0,0,0-1.26c0-.4,0-.87-.09-1.4,0-.16,0-.33-.07-.5-.05-.36-.11-.74-.2-1.14a5,5,0,0,0-.12-.53,17.21,17.21,0,0,0-1.25-3.49c-.07-.16-.16-.33-.24-.49a18.25,18.25,0,0,f" stroke-miterlimit="10" stroke-width="2"/><line x1="198.99" y1="367.81" x2="300.6" y2="366.81" fill="none" stroke="#6c63ff" stroke-miterlimit="10" stroke-width="2"/></svg>